<svg width="720" height="855" viewBox="0 0 720 855" fill="none" xmlns="http://www.w3.org/2000/svg">
<g clip-path="url(#clip0_359_287)">
<path d="M585 270C659.558 270 720 209.558 720 135C720 60.4416 659.558 0 585 0C510.442 0 450 60.4416 450 135C450 209.558 510.442 270 585 270Z" fill="#FFD300"/>
<path d="M0.579923 695.657C0.899846 783.194 72.1216 853.897 159.658 853.577C247.195 853.257 317.898 782.035 317.578 694.499C317.258 606.962 246.036 536.259 158.5 536.579C70.963 536.899 0.26 608.121 0.579923 695.657Z" fill="#FFD300"/>
<path d="M276.508 681.834C276.603 707.634 297.594 728.473 323.395 728.379C349.195 728.284 370.034 707.293 369.939 681.492C369.845 655.692 348.853 634.853 323.053 634.948C297.253 635.042 276.414 656.034 276.508 681.834Z" fill="#FFD300"/>
<mask id="mask0_359_287" style="mask-type:alpha" maskUnits="userSpaceOnUse" x="0" y="536" width="318" height="318">
<path d="M0.579435 695.657C0.899358 783.194 72.1211 853.897 159.658 853.577C247.194 853.257 317.897 782.035 317.577 694.499C317.257 606.962 246.036 536.259 158.499 536.579C70.9625 536.899 0.259512 608.121 0.579435 695.657Z" fill="#FAE62D"/>
</mask>
<g mask="url(#mask0_359_287)">
<path d="M276.509 681.834C276.603 707.634 297.595 728.473 323.395 728.379C349.195 728.284 370.034 707.293 369.94 681.492C369.845 655.692 348.854 634.853 323.054 634.948C297.253 635.042 276.415 656.034 276.509 681.834Z" fill="#3B10E4"/>
</g>
</g>
<defs>
<clipPath id="clip0_359_287">
<rect width="720" height="855" fill="white"/>
</clipPath>
</defs>
</svg>
