<svg width="1274" height="1222" viewBox="0 0 1274 1222" fill="none" xmlns="http://www.w3.org/2000/svg">
<g clip-path="url(#clip0_359_296)">
<path d="M1079.5 389.5C1186.92 389.5 1274 302.419 1274 195C1274 87.5806 1186.92 0.5 1079.5 0.5C972.081 0.5 885 87.5806 885 195C885 302.419 972.081 389.5 1079.5 389.5Z" fill="#FFD300"/>
<path d="M0.836016 991.719C1.29733 1117.94 103.996 1219.89 230.22 1219.43C356.444 1218.97 458.394 1116.27 457.933 990.048C457.472 863.825 354.773 761.874 228.549 762.335C102.325 762.797 0.374702 865.495 0.836016 991.719Z" fill="#FFD300"/>
<path d="M398.714 974.945C398.85 1012.15 429.119 1042.2 466.322 1042.06C503.525 1041.92 533.574 1011.66 533.438 974.453C533.302 937.25 503.033 907.201 465.83 907.337C428.627 907.473 398.578 937.742 398.714 974.945Z" fill="#FFD300"/>
<mask id="mask0_359_296" style="mask-type:alpha" maskUnits="userSpaceOnUse" x="0" y="762" width="458" height="458">
<path d="M0.83504 991.995C1.29635 1118.22 103.995 1220.17 230.219 1219.71C356.443 1219.25 458.393 1116.55 457.932 990.325C457.471 864.101 354.772 762.15 228.548 762.612C102.324 763.073 0.373725 865.772 0.83504 991.995Z" fill="#1ED760"/>
</mask>
<g mask="url(#mask0_359_296)">
<path d="M398.714 974.945C398.85 1012.15 429.119 1042.2 466.322 1042.06C503.525 1041.92 533.574 1011.66 533.438 974.453C533.302 937.25 503.033 907.201 465.83 907.337C428.627 907.473 398.578 937.742 398.714 974.945Z" fill="#3B10E4"/>
</g>
</g>
<defs>
<clipPath id="clip0_359_296">
<rect width="1274" height="1221" fill="white" transform="translate(0 0.5)"/>
</clipPath>
</defs>
</svg>
